<svg xmlns="http://www.w3.org/2000/svg" xmlns:xlink="http://www.w3.org/1999/xlink" width="2000" zoomAndPan="magnify" viewBox="0 0 1500 1499.999933" height="2000" preserveAspectRatio="xMidYMid meet" version="1.0"><defs><g/><clipPath id="44e020312d"><path d="M 128.664062 129.011719 L 1372.1875 129.011719 L 1372.1875 1372.535156 L 128.664062 1372.535156 Z M 128.664062 129.011719 " clip-rule="nonzero"/></clipPath><clipPath id="f1cb1c5503"><path d="M 750.425781 129.011719 C 407.039062 129.011719 128.664062 407.386719 128.664062 750.773438 C 128.664062 1094.164062 407.039062 1372.535156 750.425781 1372.535156 C 1093.816406 1372.535156 1372.1875 1094.164062 1372.1875 750.773438 C 1372.1875 407.386719 1093.816406 129.011719 750.425781 129.011719 Z M 750.425781 129.011719 " clip-rule="nonzero"/></clipPath><clipPath id="8eab9fe045"><path d="M 0.664062 0.0117188 L 1244.1875 0.0117188 L 1244.1875 1243.535156 L 0.664062 1243.535156 Z M 0.664062 0.0117188 " clip-rule="nonzero"/></clipPath><clipPath id="16b76000c8"><path d="M 622.425781 0.0117188 C 279.039062 0.0117188 0.664062 278.386719 0.664062 621.773438 C 0.664062 965.164062 279.039062 1243.535156 622.425781 1243.535156 C 965.816406 1243.535156 1244.1875 965.164062 1244.1875 621.773438 C 1244.1875 278.386719 965.816406 0.0117188 622.425781 0.0117188 Z M 622.425781 0.0117188 " clip-rule="nonzero"/></clipPath><clipPath id="c678eba287"><rect x="0" width="1245" y="0" height="1244"/></clipPath><clipPath id="4868552680"><path d="M 127.542969 329.640625 L 1370.292969 329.640625 L 1370.292969 1258.890625 L 127.542969 1258.890625 Z M 127.542969 329.640625 " clip-rule="nonzero"/></clipPath><clipPath id="11fd310c65"><path d="M 41.339844 41.6875 L 1459.589844 41.6875 L 1459.589844 1459.9375 L 41.339844 1459.9375 Z M 41.339844 41.6875 " clip-rule="nonzero"/></clipPath><clipPath id="bde2893b1e"><path d="M 0.441406 253 L 719 253 L 719 1190 L 0.441406 1190 Z M 0.441406 253 " clip-rule="nonzero"/></clipPath><clipPath id="0c313cec3f"><rect x="0" width="755" y="0" height="1500"/></clipPath></defs><g clip-path="url(#44e020312d)"><g clip-path="url(#f1cb1c5503)"><g transform="matrix(1, 0, 0, 1, 128, 129)"><g clip-path="url(#c678eba287)"><g clip-path="url(#8eab9fe045)"><g clip-path="url(#16b76000c8)"><path fill="#0f3d2e" d="M 0.664062 0.0117188 L 1244.1875 0.0117188 L 1244.1875 1243.535156 L 0.664062 1243.535156 Z M 0.664062 0.0117188 " fill-opacity="1" fill-rule="nonzero"/></g></g></g></g></g></g><g clip-path="url(#4868552680)"><path fill="#ffffff" d="M 813.621094 1259.4375 C 812.769531 1259.4375 811.921875 1259.304688 811.136719 1258.980469 C 809.433594 1258.324219 807.996094 1257.082031 806.882812 1255.183594 L 805.902344 1253.15625 C 805.707031 1252.699219 805.511719 1252.046875 805.25 1251.328125 C 804.855469 1250.148438 804.464844 1248.644531 804.074219 1246.945312 C 803.875 1246.160156 803.679688 1245.308594 803.550781 1244.394531 L 803.089844 1241.972656 C 802.304688 1237.527344 801.71875 1232.882812 801.0625 1227.585938 C 800.476562 1222.351562 799.820312 1216.53125 799.230469 1210.121094 C 798.96875 1206.917969 798.644531 1203.644531 798.382812 1200.046875 L 797.53125 1189.125 C 796.484375 1174.800781 795.4375 1157.863281 794.457031 1138.828125 L 789.226562 1015.542969 L 780.589844 750.257812 C 779.871094 730.179688 779.152344 711.082031 778.433594 693.355469 C 776.863281 654.898438 775.292969 626.1875 773.660156 605.453125 C 773.199219 599.894531 772.808594 594.859375 772.351562 590.28125 C 772.21875 589.035156 772.089844 587.859375 771.957031 586.683594 C 769.996094 598.390625 767.96875 614.085938 765.746094 635.148438 C 763.324219 658.234375 761.230469 682.894531 759.925781 699.441406 L 755.148438 760.984375 C 753.644531 780.28125 752.273438 798.070312 750.898438 813.507812 C 749.328125 830.773438 747.953125 843.199219 746.582031 852.550781 C 745.730469 858.175781 744.945312 862.558594 744.226562 865.894531 C 743.246094 870.082031 742.332031 873.023438 741.21875 875.25 C 738.667969 881.003906 734.480469 881.855469 732.386719 881.722656 C 725.195312 881.527344 721.53125 873.023438 716.300781 859.09375 L 714.335938 853.796875 C 713.683594 852.03125 713.027344 850.261719 712.375 848.5625 L 705.507812 831.753906 L 710.9375 828.351562 L 705.113281 830.96875 L 703.023438 826.78125 C 702.761719 826.324219 702.5625 825.800781 702.300781 825.410156 L 701.125 823.511719 C 700.796875 822.925781 700.40625 822.402344 700.078125 821.941406 C 699.882812 821.679688 699.554688 821.289062 699.226562 820.898438 C 698.246094 819.652344 697.332031 818.867188 696.351562 818.148438 C 695.628906 817.625 694.78125 817.300781 693.539062 816.90625 L 693.078125 816.777344 C 691.707031 816.382812 690.007812 815.925781 688.109375 815.011719 C 682.027344 812 677.1875 805.722656 671.824219 794.082031 L 669.730469 789.4375 C 669.140625 788.0625 668.554688 786.691406 667.964844 785.445312 C 667.441406 784.203125 666.984375 783.222656 666.589844 782.308594 C 665.347656 787.605469 663.714844 796.957031 661.75 813.570312 C 661.03125 819.457031 660.378906 825.933594 659.65625 832.734375 L 652.726562 902.457031 C 651.875 910.632812 650.960938 918.871094 649.976562 926.917969 L 646.902344 949.808594 C 646.316406 953.339844 645.792969 956.808594 645.203125 960.078125 L 644.289062 964.785156 C 643.960938 966.292969 643.699219 967.796875 643.371094 969.167969 L 642.324219 973.421875 C 642 974.597656 641.671875 975.839844 641.34375 976.953125 C 641.019531 978.128906 640.625 979.242188 640.234375 980.289062 L 638.925781 983.363281 C 638.402344 984.34375 637.945312 985.191406 637.484375 985.914062 C 636.898438 986.828125 635.917969 988.265625 634.214844 989.183594 C 632.382812 990.492188 629.570312 990.816406 627.019531 989.835938 C 624.929688 989.117188 623.816406 987.613281 623.226562 986.828125 C 622.703125 986.109375 622.179688 985.324219 621.722656 984.34375 C 621.332031 983.558594 620.9375 982.773438 620.613281 981.792969 L 619.628906 978.585938 C 619.042969 976.496094 618.453125 974.074219 617.929688 971.394531 L 617.144531 967.140625 C 616.882812 965.570312 616.621094 964.003906 616.359375 962.367188 C 615.445312 956.089844 614.464844 948.5 613.546875 939.671875 L 612.238281 926.328125 C 611.847656 921.683594 611.390625 916.84375 610.996094 911.875 C 610.210938 901.933594 609.425781 891.46875 608.707031 880.675781 C 607.335938 860.925781 606.089844 839.863281 604.785156 818.867188 L 602.363281 779.167969 C 601.644531 768.050781 600.925781 757.191406 600.207031 746.726562 C 598.570312 723.835938 597.066406 705.71875 595.429688 691.265625 C 594.582031 683.546875 593.664062 676.875 592.75 670.921875 C 592.292969 668.109375 591.769531 665.496094 591.308594 663.140625 C 591.179688 662.617188 591.113281 662.160156 590.984375 661.699219 C 590.917969 661.960938 590.851562 662.222656 590.785156 662.484375 C 590.199219 664.578125 589.609375 666.867188 589.085938 669.351562 C 588.824219 670.597656 588.496094 671.902344 588.234375 673.277344 C 587.972656 674.585938 587.710938 676.089844 587.453125 677.527344 C 586.339844 683.480469 585.359375 689.957031 584.441406 696.890625 C 583.460938 703.953125 582.546875 711.410156 581.695312 719.0625 C 580.84375 726.714844 579.996094 734.628906 579.210938 742.605469 C 578.425781 750.585938 577.640625 758.566406 576.921875 766.675781 L 572.667969 813.242188 C 571.035156 830.511719 569.726562 842.675781 568.351562 852.683594 C 566.71875 864.980469 565.082031 873.875 563.382812 879.890625 C 562.335938 883.488281 559.261719 894.542969 550.5625 893.300781 C 549.648438 893.167969 548.730469 892.90625 547.816406 892.449219 C 547.421875 892.316406 546.703125 891.925781 546.050781 891.402344 C 545.003906 890.683594 543.957031 889.636719 542.976562 888.261719 C 541.472656 886.300781 539.96875 883.488281 538.332031 879.824219 L 537.285156 877.535156 C 536.894531 876.6875 536.566406 875.902344 536.238281 875.050781 C 535.585938 873.417969 534.867188 871.714844 534.277344 869.949219 C 533.035156 866.808594 531.855469 863.410156 530.746094 860.007812 C 529.632812 856.867188 528.652344 853.664062 527.671875 850.523438 L 520.148438 826.585938 C 518.710938 822.269531 517.402344 818.410156 516.027344 815.140625 C 514.722656 811.9375 513.542969 809.449219 512.367188 807.683594 C 511.777344 806.769531 511.253906 806.050781 510.730469 805.527344 C 510.535156 805.328125 510.339844 805.132812 510.207031 805.003906 L 509.160156 804.085938 C 508.835938 803.824219 508.507812 803.628906 508.179688 803.5625 L 506.9375 803.039062 C 506.21875 802.714844 505.957031 802.648438 505.695312 802.648438 L 505.039062 802.515625 C 504.910156 802.515625 503.996094 802.386719 502.949219 801.929688 C 503.144531 801.992188 502.75 801.929688 502.359375 801.796875 C 501.96875 801.734375 501.507812 801.667969 501.117188 801.601562 L 498.171875 800.949219 C 497.648438 800.816406 497.257812 800.75 496.800781 800.6875 C 496.34375 800.621094 495.621094 800.554688 494.773438 800.292969 C 493.269531 799.964844 492.15625 799.246094 491.699219 798.921875 L 490.847656 798.460938 L 487.316406 795.453125 C 486.792969 797.023438 486.335938 799.050781 485.8125 801.535156 C 485.15625 804.871094 484.4375 808.925781 483.785156 813.703125 C 483.066406 818.542969 482.410156 824.230469 481.691406 830.574219 C 480.972656 836.921875 480.253906 844.246094 479.53125 852.160156 L 472.011719 945.164062 C 471.03125 957.59375 470.050781 970.476562 468.9375 983.492188 C 467.824219 996.507812 466.714844 1009.589844 465.472656 1022.472656 C 464.816406 1028.882812 464.226562 1035.226562 463.574219 1041.375 L 462.59375 1050.402344 C 462.265625 1053.34375 461.9375 1056.089844 461.546875 1058.773438 C 460.828125 1064.203125 460.171875 1068.976562 459.519531 1073.03125 C 459.191406 1075.125 458.867188 1076.957031 458.539062 1078.722656 L 457.492188 1083.234375 C 456.640625 1086.242188 455.136719 1091.800781 450.230469 1092.914062 C 447.8125 1093.4375 445.457031 1092.785156 443.625 1091.082031 L 442.777344 1090.363281 L 441.730469 1088.207031 C 441.402344 1087.484375 441.207031 1086.960938 441.007812 1086.375 C 440.75 1085.523438 440.421875 1084.347656 440.09375 1082.972656 C 439.964844 1082.320312 439.832031 1081.597656 439.636719 1080.878906 C 439.441406 1080.03125 439.375 1079.375 439.242188 1078.527344 C 438.980469 1076.957031 438.71875 1075.191406 438.457031 1073.226562 C 437.9375 1069.367188 437.476562 1064.988281 437.019531 1059.886719 C 436.5625 1054.652344 436.105469 1048.898438 435.648438 1042.617188 C 434.863281 1031.367188 434.011719 1016.914062 433.160156 998.46875 L 430.871094 943.59375 C 429.5 906.054688 428.125 864.324219 426.621094 813.113281 L 425.769531 785.773438 C 424.660156 748.425781 423.546875 710.6875 422.304688 674.585938 C 420.601562 622.066406 419.035156 583.019531 417.53125 551.691406 C 415.371094 506.953125 413.277344 480.53125 411.511719 464.964844 C 411.445312 465.488281 411.382812 466.007812 411.316406 466.597656 C 411.054688 468.953125 410.726562 471.371094 410.464844 473.988281 C 410.203125 476.605469 409.941406 479.417969 409.617188 482.296875 C 409.09375 488.050781 408.570312 494.328125 408.046875 501 C 407.523438 507.738281 407.066406 514.933594 406.542969 522.453125 L 403.792969 571.898438 C 402.945312 589.625 402.09375 608.527344 401.308594 628.015625 C 400.523438 647.640625 399.738281 667.914062 399.019531 688.515625 L 392.675781 873.15625 C 391.957031 892.578125 391.238281 911.21875 390.515625 928.8125 C 389.796875 946.40625 389.011719 962.957031 388.226562 978.128906 C 387.441406 993.238281 386.59375 1006.90625 385.742188 1018.8125 C 385.285156 1024.828125 384.828125 1030.386719 384.367188 1035.488281 C 383.910156 1040.589844 383.453125 1045.167969 382.929688 1049.222656 C 382.40625 1053.34375 381.949219 1057.007812 381.359375 1060.082031 C 381.097656 1061.652344 380.835938 1063.15625 380.511719 1064.464844 C 380.183594 1065.902344 379.855469 1067.210938 379.527344 1068.257812 C 378.546875 1071.527344 376.914062 1075.515625 373.054688 1076.824219 C 370.765625 1077.609375 368.277344 1077.21875 366.25 1075.777344 C 365.007812 1075.058594 364.09375 1073.554688 363.4375 1072.378906 C 362.980469 1071.59375 362.589844 1070.613281 362.132812 1069.367188 C 361.347656 1067.339844 360.628906 1064.726562 359.84375 1061.585938 C 358.46875 1055.894531 357.09375 1048.4375 355.785156 1039.414062 L 353.957031 1025.742188 C 353.367188 1020.902344 352.777344 1015.867188 352.253906 1010.765625 C 350.359375 992.582031 348.394531 970.804688 346.433594 944.183594 C 344.667969 921.097656 343.164062 897.746094 341.660156 875.507812 L 337.410156 813.375 C 335.839844 792.050781 334.464844 776.617188 333.15625 764.777344 C 332.046875 754.707031 330.867188 746.859375 329.757812 741.429688 C 329.101562 743.261719 328.382812 745.417969 327.597656 748.035156 C 326.160156 752.222656 324.917969 756.472656 323.738281 760.722656 C 323.542969 761.441406 323.347656 762.226562 323.085938 762.882812 L 320.273438 772.691406 C 318.113281 780.542969 316.152344 786.949219 314.386719 792.640625 C 310.59375 804.742188 307.648438 811.871094 304.574219 816.449219 C 302.613281 819.328125 300.453125 821.417969 298.035156 822.726562 C 296.859375 823.316406 295.417969 823.90625 293.785156 824.167969 C 293.457031 824.230469 292.933594 824.296875 292.410156 824.296875 C 291.429688 824.363281 290.644531 824.429688 289.925781 824.363281 C 289.007812 824.363281 287.898438 824.230469 286.652344 824.101562 C 284.167969 823.773438 282.011719 823.511719 279.328125 824.558594 L 276.449219 825.867188 C 275.601562 826.390625 275.011719 826.78125 274.421875 827.109375 C 273.640625 827.566406 273.3125 827.828125 272.917969 828.023438 C 270.304688 829.53125 267.425781 831.164062 264.023438 831.164062 C 261.144531 831.359375 257.289062 830.445312 253.820312 825.605469 C 252.121094 823.382812 250.421875 819.914062 248.71875 814.878906 C 246.300781 807.878906 243.945312 797.9375 241.199219 786.492188 L 239.496094 779.363281 C 237.863281 772.628906 235.964844 764.84375 233.742188 757.125 C 233.21875 755.296875 232.628906 753.464844 232.105469 751.699219 L 231.84375 750.847656 C 231.648438 750.324219 231.519531 749.734375 231.320312 749.210938 L 230.472656 746.792969 C 229.882812 745.289062 229.292969 743.847656 228.707031 742.410156 C 228.445312 741.820312 228.183594 741.234375 227.921875 740.710938 C 227.265625 742.671875 226.417969 745.484375 225.5 749.539062 C 225.042969 751.4375 224.652344 753.53125 224.257812 755.621094 C 223.867188 757.78125 223.472656 760.070312 223.082031 762.488281 C 222.6875 764.84375 222.296875 767.394531 221.96875 769.945312 C 221.578125 772.5625 221.183594 775.242188 220.855469 777.992188 C 220.136719 783.484375 219.417969 789.304688 218.699219 795.257812 L 216.410156 814.878906 C 209.148438 878.648438 205.09375 905.136719 194.105469 909.847656 C 190.835938 911.285156 187.171875 910.695312 184.097656 908.40625 C 182.988281 907.558594 181.875 906.511719 180.894531 905.203125 C 180.632812 904.875 180.371094 904.550781 180.109375 904.089844 C 179.847656 903.699219 179.652344 903.371094 179.390625 902.914062 C 179.0625 902.390625 178.671875 901.671875 178.34375 900.953125 C 177.035156 898.335938 175.726562 895.195312 174.484375 891.597656 C 173.894531 889.898438 173.375 888.132812 172.851562 886.234375 C 172.589844 885.320312 172.328125 884.273438 172.066406 883.226562 L 171.34375 880.21875 C 170.363281 876.097656 169.449219 871.847656 168.535156 867.398438 C 167.683594 863.015625 166.832031 858.503906 166.046875 853.925781 C 165.261719 849.347656 164.476562 844.636719 163.757812 840.058594 L 162.125 829.921875 C 161.207031 824.296875 160.359375 818.804688 159.507812 813.636719 C 157.347656 800.6875 154.40625 785.054688 151.136719 778.839844 C 150.546875 779.496094 149.761719 780.476562 148.78125 781.914062 C 148.128906 782.832031 147.539062 783.8125 146.949219 784.726562 L 144.988281 787.800781 C 143.875 789.632812 142.765625 791.53125 141.71875 793.425781 L 135.4375 804.414062 C 134.652344 805.789062 133.867188 807.097656 133.148438 808.140625 C 132.300781 809.449219 131.449219 810.628906 130.664062 811.738281 C 128.765625 814.355469 127 816.1875 125.234375 817.625 C 123.207031 819.261719 120.984375 820.4375 118.5 821.027344 C 117.257812 821.355469 115.882812 821.484375 114.574219 821.417969 C 113.070312 821.355469 112.15625 821.289062 111.171875 821.15625 C 109.996094 820.960938 108.558594 820.632812 106.988281 820.308594 C 104.503906 819.71875 101.953125 819.066406 99.007812 819.066406 C 97.699219 819.128906 96.328125 819.523438 95.082031 820.308594 L 93.839844 821.027344 C 93.382812 821.289062 93.777344 821.027344 94.101562 820.765625 C 93.054688 821.550781 92.402344 821.941406 91.75 822.335938 C 91.09375 822.664062 90.898438 822.792969 90.636719 822.921875 C 89.71875 823.445312 88.804688 823.96875 87.953125 824.296875 C 87.628906 824.429688 87.234375 824.558594 86.84375 824.691406 C 86.777344 824.753906 86.449219 824.820312 86.058594 824.953125 C 85.339844 825.148438 84.292969 825.34375 83.3125 825.34375 C 81.675781 825.277344 79.714844 825.015625 77.6875 823.839844 C 77.097656 823.511719 76.378906 822.921875 75.59375 822.203125 C 75.003906 821.617188 74.351562 820.960938 73.761719 820.175781 C 72.78125 818.867188 71.863281 817.300781 71.015625 815.46875 C 69.511719 812.199219 68.007812 808.011719 66.371094 802.191406 C 65.585938 799.445312 64.800781 796.433594 64.015625 793.164062 L 60.222656 777.007812 C 58.847656 770.863281 57.34375 764.191406 55.644531 756.996094 C 54.597656 752.417969 53.421875 747.839844 52.242188 743.261719 C 51.65625 741.035156 51 738.8125 50.414062 736.65625 L 48.449219 730.570312 C 48.382812 730.3125 48.253906 730.113281 48.1875 729.851562 C 47.992188 730.769531 47.730469 731.878906 47.46875 733.058594 C 44.003906 750.0625 41.125 781.980469 38.507812 813.113281 L 34.257812 863.214844 C 33.539062 871.453125 32.753906 879.5 31.96875 887.214844 C 31.183594 894.867188 30.332031 902.195312 29.484375 908.996094 C 28.632812 915.796875 27.652344 922.011719 26.671875 927.441406 L 25.886719 931.429688 C 25.625 932.738281 25.363281 933.980469 25.101562 935.160156 C 24.578125 937.578125 23.988281 939.738281 23.398438 941.765625 C 22.8125 943.859375 22.15625 945.753906 21.503906 947.324219 C 21.175781 948.238281 20.71875 949.023438 20.324219 949.808594 C 19.933594 950.59375 19.476562 951.3125 19.019531 951.96875 C 17.839844 953.667969 16.53125 954.910156 15.027344 955.761719 C 14.113281 956.285156 13 956.675781 11.953125 956.871094 C 9.925781 957.199219 8.292969 956.613281 7.703125 956.351562 C 0.964844 954.0625 -4.070312 944.511719 -9.628906 902.71875 C -10.480469 896.046875 -11.328125 889.046875 -12.113281 881.722656 C -12.898438 874.464844 -13.683594 866.875 -14.402344 859.222656 L -18.65625 813.113281 C -21.074219 786.492188 -24.019531 756.601562 -27.617188 738.8125 C -28.007812 736.71875 -28.464844 734.953125 -28.859375 733.320312 C -29.183594 731.945312 -29.578125 730.703125 -29.96875 729.589844 C -31.867188 733.382812 -33.894531 738.8125 -35.855469 745.746094 C -37.6875 752.15625 -39.519531 759.613281 -41.613281 769.226562 C -43.183594 776.75 -44.6875 784.140625 -46.058594 791.136719 C -47.695312 799.445312 -49.199219 807.160156 -50.703125 813.832031 C -52.339844 820.894531 -53.710938 826.0625 -55.214844 830.054688 C -56.132812 832.539062 -56.984375 834.5 -57.964844 836.199219 C -58.550781 837.246094 -59.140625 838.097656 -59.730469 838.882812 C -60.054688 839.273438 -60.382812 839.734375 -60.777344 840.058594 L -61.496094 840.78125 C -65.484375 844.441406 -70.457031 844.964844 -75.035156 842.285156 C -75.558594 842.023438 -76.277344 841.5 -76.929688 840.976562 C -77.847656 840.320312 -78.695312 839.667969 -79.546875 838.949219 C -80.332031 838.230469 -81.050781 837.507812 -81.835938 836.660156 C -82.292969 836.199219 -83.078125 835.480469 -83.863281 834.632812 C -84.582031 833.847656 -85.367188 833.0625 -86.023438 832.210938 C -86.414062 831.820312 -87.132812 831.097656 -87.789062 830.445312 L -94.066406 824.101562 C -94.722656 823.578125 -95.636719 822.859375 -96.421875 822.140625 C -99.363281 819.851562 -101.390625 819.066406 -103.160156 818.605469 C -104.203125 818.34375 -105.316406 818.148438 -106.558594 817.953125 L -107.410156 817.886719 C -107.933594 817.824219 -108.457031 817.824219 -108.980469 817.757812 L -121.078125 815.925781 C -122.257812 815.664062 -122.976562 815.402344 -123.761719 815.207031 L -129.710938 813.441406 C -130.695312 813.113281 -131.609375 812.851562 -132.460938 812.65625 L -133.179688 812.460938 C -134.8125 811.9375 -135.664062 811.9375 -136.058594 812 C -136.449219 812.066406 -137.039062 812.199219 -137.886719 812.917969 C -138.871094 813.636719 -139.785156 814.683594 -140.898438 816.1875 C -142.53125 818.476562 -144.296875 821.484375 -146.324219 824.953125 C -147.371094 826.78125 -148.484375 828.679688 -149.660156 830.640625 C -151.230469 833.257812 -153.390625 836.59375 -155.941406 839.863281 L -156.921875 841.105469 C -157.3125 841.5625 -157.640625 841.890625 -157.96875 842.285156 C -158.6875 843.003906 -159.339844 843.722656 -160.058594 844.375 C -161.761719 845.882812 -163.332031 847.125 -165.03125 848.171875 C -167.191406 849.476562 -169.21875 850.261719 -171.179688 850.589844 C -174.058594 850.851562 -176.214844 850.460938 -178.242188 849.609375 C -179.160156 849.214844 -180.140625 848.695312 -180.988281 848.039062 C -181.972656 847.386719 -182.757812 846.535156 -183.476562 845.75 C -184.785156 844.3125 -185.894531 842.742188 -187.074219 840.78125 C -188.839844 837.835938 -190.472656 834.042969 -192.371094 828.484375 C -193.875 824.101562 -195.3125 819.195312 -196.753906 814.226562 L -197.40625 812.066406 C -199.890625 803.433594 -202.441406 794.472656 -205.453125 788.195312 C -206.957031 784.988281 -209.964844 779.625 -212.84375 779.625 C -213.234375 779.625 -214.214844 779.625 -215.785156 781.195312 C -217.160156 782.699219 -218.730469 785.316406 -220.363281 788.71875 C -223.4375 795.386719 -226.054688 804.21875 -228.605469 812.722656 L -229.0625 814.289062 C -230.5 819.066406 -231.941406 823.773438 -233.445312 828.089844 C -234.230469 830.316406 -235.015625 832.539062 -235.863281 834.5 C -236.78125 836.59375 -237.695312 838.554688 -238.675781 840.257812 C -245.21875 851.964844 -253.394531 852.75 -258.953125 851.375 C -260 851.113281 -260.980469 850.785156 -261.960938 850.394531 C -263.074219 849.871094 -264.054688 849.28125 -264.96875 848.628906 C -266.605469 847.449219 -268.042969 846.140625 -269.484375 844.574219 C -271.835938 842.023438 -273.996094 838.949219 -276.152344 835.089844 C -277.855469 832.082031 -279.488281 828.746094 -281.253906 824.753906 L -283.019531 820.765625 C -283.871094 818.804688 -284.722656 816.90625 -285.507812 815.074219 C -287.011719 811.738281 -288.253906 809.320312 -289.367188 807.421875 C -289.953125 806.507812 -290.542969 805.65625 -291.132812 804.871094 C -291.523438 804.414062 -291.917969 804.023438 -292.375 803.695312 C -292.898438 803.300781 -293.289062 803.238281 -293.945312 803.300781 C -294.46875 803.5 -294.859375 803.695312 -295.253906 803.890625 C -295.710938 804.085938 -296.167969 804.347656 -296.625 804.675781 C -296.953125 804.871094 -297.28125 805.132812 -297.671875 805.460938 L -302.511719 801.210938 L -305.976562 795.847656 C -305.191406 795.257812 -304.472656 794.734375 -303.753906 794.277344 C -302.902344 793.753906 -302.121094 793.363281 -301.335938 792.96875 C -300.484375 792.578125 -299.632812 792.183594 -298.847656 791.921875 C -297.933594 791.597656 -296.757812 791.203125 -295.382812 791.136719 C -292.046875 790.8125 -288.644531 791.726562 -285.570312 793.820312 C -284.199219 794.800781 -282.957031 795.914062 -281.84375 797.285156 C -280.863281 798.464844 -279.945312 799.773438 -279.03125 801.277344 C -277.59375 803.695312 -276.152344 806.441406 -274.386719 810.300781 C -273.539062 812.199219 -272.6875 814.160156 -271.769531 816.1875 L -270.070312 820.113281 C -268.5 823.644531 -267.0625 826.652344 -265.558594 829.269531 C -263.855469 832.277344 -262.222656 834.566406 -260.585938 836.398438 C -259.738281 837.3125 -258.886719 838.035156 -258.101562 838.6875 C -257.839844 838.882812 -257.578125 839.078125 -257.316406 839.210938 C -257.121094 839.277344 -256.792969 839.40625 -256.464844 839.472656 C -255.484375 839.734375 -253.523438 840.191406 -250.253906 834.5 C -249.46875 833.128906 -248.75 831.625 -248.09375 829.988281 C -247.375 828.222656 -246.65625 826.324219 -245.9375 824.363281 C -244.496094 820.175781 -243.125 815.664062 -241.75 811.085938 L -241.292969 809.515625 C -238.609375 800.554688 -235.863281 791.269531 -232.398438 783.8125 C -230.238281 779.167969 -227.949219 775.570312 -225.464844 772.824219 C -221.800781 769.160156 -217.8125 767.332031 -213.429688 767.332031 C -213.363281 767.332031 -213.363281 767.332031 -213.300781 767.332031 C -201.855469 767.332031 -196.230469 779.234375 -194.398438 783.160156 C -190.929688 790.351562 -188.25 799.835938 -185.632812 808.992188 L -184.980469 811.152344 C -183.605469 815.925781 -182.230469 820.570312 -180.792969 824.757812 C -179.8125 827.699219 -178.242188 831.886719 -176.542969 834.761719 C -175.824219 835.941406 -175.167969 836.855469 -174.578125 837.574219 C -174.449219 837.707031 -174.253906 837.96875 -174.054688 838.097656 C -173.730469 838.425781 -173.207031 838.292969 -172.09375 837.640625 C -171.179688 837.117188 -170.199219 836.332031 -169.214844 835.417969 C -168.695312 834.960938 -168.234375 834.5 -167.777344 833.976562 L -166.664062 832.671875 C -164.3125 829.660156 -162.480469 826.71875 -161.105469 824.429688 C -159.996094 822.53125 -158.882812 820.699219 -157.902344 818.933594 C -155.808594 815.335938 -153.847656 811.9375 -151.820312 809.125 C -149.921875 806.507812 -148.089844 804.613281 -146.195312 803.171875 C -143.90625 801.40625 -141.289062 800.230469 -138.542969 799.835938 C -136.054688 799.445312 -133.308594 799.707031 -130.171875 800.6875 C -128.925781 800.949219 -127.683594 801.277344 -126.3125 801.734375 L -120.621094 803.433594 C -120.03125 803.628906 -119.445312 803.828125 -118.855469 803.957031 L -113.296875 804.9375 C -112.25 805.003906 -111.332031 805.132812 -110.351562 805.265625 L -106.886719 805.65625 C -106.363281 805.722656 -105.90625 805.722656 -105.382812 805.789062 C -103.746094 805.984375 -102.113281 806.3125 -100.476562 806.703125 C -96.355469 807.816406 -92.890625 809.648438 -89.097656 812.589844 C -88.113281 813.375 -87.199219 814.160156 -86.152344 815.011719 C -85.238281 815.859375 -84.582031 816.515625 -83.929688 817.167969 L -82.75 818.347656 L -86.347656 823.710938 L -81.902344 819.132812 L -79.023438 822.207031 C -78.5 822.792969 -77.910156 823.382812 -77.257812 824.035156 C -76.34375 825.019531 -75.753906 825.738281 -75.097656 826.390625 C -74.445312 827.046875 -73.855469 827.632812 -73.332031 828.222656 C -72.546875 829.074219 -72.023438 829.53125 -71.566406 829.988281 C -71.175781 830.316406 -70.78125 830.644531 -70.457031 830.902344 L -70.0625 831.164062 C -69.933594 830.902344 -69.734375 830.707031 -69.605469 830.445312 C -69.015625 829.398438 -68.363281 827.960938 -67.773438 826.195312 C -66.53125 822.730469 -65.222656 817.886719 -63.71875 811.480469 C -62.214844 804.9375 -60.777344 797.351562 -59.140625 789.175781 C -57.765625 782.113281 -56.261719 774.589844 -54.691406 767.003906 C -52.601562 757.0625 -50.703125 749.277344 -48.742188 742.609375 C -46.125 733.515625 -43.507812 726.714844 -40.761719 721.941406 C -38.734375 718.40625 -36.707031 716.183594 -34.417969 714.875 C -33.566406 714.417969 -32.652344 714.027344 -31.734375 713.828125 L -30.230469 713.632812 C -30.230469 713.632812 -30.230469 713.632812 -30.167969 713.632812 C -28.921875 713.632812 -28.136719 713.828125 -27.8125 713.960938 C -25.914062 714.613281 -24.410156 715.59375 -23.101562 717.035156 C -21.46875 718.867188 -20.027344 721.546875 -18.71875 725.210938 C -18.195312 726.714844 -17.675781 728.480469 -17.152344 730.441406 C -16.691406 732.273438 -16.167969 734.300781 -15.710938 736.65625 C -11.984375 755.035156 -9.039062 785.316406 -6.554688 812.265625 L -2.304688 858.308594 C -1.585938 865.894531 -0.800781 873.417969 -0.015625 880.613281 C 0.769531 887.804688 1.621094 894.738281 2.472656 901.28125 C 5.480469 924.105469 8.226562 935.09375 10.058594 940.390625 C 10.253906 939.738281 10.449219 939.082031 10.644531 938.363281 C 11.167969 936.597656 11.628906 934.636719 12.152344 932.542969 C 12.414062 931.496094 12.609375 930.320312 12.871094 929.140625 L 13.589844 925.414062 C 14.570312 920.050781 15.421875 914.164062 16.269531 907.558594 C 17.121094 900.820312 17.972656 893.628906 18.757812 886.105469 C 19.542969 878.453125 20.328125 870.472656 21.046875 862.296875 L 25.296875 812.265625 C 28.042969 779.363281 30.855469 748.429688 34.453125 730.703125 C 36.742188 719.519531 39.226562 712.71875 45.113281 711.410156 C 46.683594 711.015625 51.261719 710.558594 55.1875 716.054688 C 56.820312 718.734375 58.328125 722.003906 59.894531 726.519531 L 60.941406 729.722656 C 61.335938 730.898438 61.664062 732.011719 61.988281 733.191406 C 62.644531 735.414062 63.296875 737.769531 63.953125 740.121094 C 65.195312 744.765625 66.371094 749.539062 67.484375 754.25 C 69.183594 761.445312 70.6875 768.117188 72.0625 774.328125 L 75.789062 790.222656 C 76.574219 793.363281 77.292969 796.238281 78.011719 798.855469 C 79.453125 803.828125 80.695312 807.554688 81.871094 810.105469 C 82.394531 811.21875 82.851562 811.9375 83.113281 812.394531 L 83.441406 812.199219 C 83.964844 811.871094 84.554688 811.542969 85.078125 811.28125 C 85.078125 811.28125 85.339844 811.085938 85.664062 810.824219 L 87.890625 809.515625 C 90.570312 807.75 94.101562 806.640625 98.027344 806.441406 C 102.800781 806.441406 106.398438 807.292969 109.277344 808.011719 C 110.453125 808.273438 111.5 808.535156 112.480469 808.667969 C 113.070312 808.730469 113.398438 808.730469 113.789062 808.796875 L 114.902344 808.730469 C 115.292969 808.667969 115.882812 808.472656 116.601562 807.816406 C 117.453125 807.097656 118.5 805.921875 119.742188 804.285156 C 120.460938 803.371094 121.113281 802.324219 121.898438 801.210938 C 122.488281 800.296875 123.144531 799.25 123.796875 798.070312 L 129.945312 787.34375 C 131.058594 785.316406 132.300781 783.222656 133.542969 781.132812 L 135.4375 778.121094 C 136.160156 776.945312 136.878906 775.832031 137.664062 774.722656 C 141.652344 768.902344 145.25 766.023438 149.175781 765.304688 C 152.050781 764.78125 157.546875 765.042969 161.796875 773.019531 C 165.132812 779.300781 167.945312 790.484375 171.476562 811.675781 C 172.328125 816.90625 173.242188 822.402344 174.160156 828.09375 L 175.792969 838.164062 C 176.511719 842.742188 177.296875 847.320312 178.082031 851.898438 C 178.867188 856.347656 179.652344 860.792969 180.566406 865.046875 C 181.417969 869.296875 182.335938 873.417969 183.25 877.34375 L 183.96875 880.21875 C 184.164062 881.070312 184.425781 881.984375 184.6875 882.769531 C 185.210938 884.472656 185.667969 886.105469 186.191406 887.609375 C 187.238281 890.621094 188.285156 893.234375 189.265625 895.261719 C 189.398438 895.523438 189.527344 895.851562 189.726562 896.113281 C 195.21875 884.734375 200.058594 842.351562 203.328125 813.507812 L 205.617188 793.820312 C 206.335938 787.804688 207.058594 781.917969 207.777344 776.355469 C 208.167969 773.542969 208.5625 770.796875 208.886719 768.179688 C 209.28125 765.5 209.671875 762.882812 210.066406 760.464844 C 210.457031 757.976562 210.917969 755.625 211.308594 753.335938 C 211.765625 751.046875 212.160156 748.757812 212.617188 746.792969 C 215.363281 734.433594 218.632812 725.929688 225.761719 724.882812 C 230.210938 724.230469 234.265625 726.84375 237.601562 732.730469 L 237.992188 733.453125 C 238.253906 733.84375 238.453125 734.234375 238.582031 734.628906 C 239.105469 735.742188 239.496094 736.523438 239.824219 737.375 C 240.542969 738.945312 241.199219 740.644531 241.851562 742.347656 L 242.832031 744.960938 C 243.09375 745.617188 243.292969 746.335938 243.554688 747.054688 L 243.816406 747.839844 C 244.402344 749.800781 244.992188 751.699219 245.582031 753.597656 C 247.871094 761.511719 249.832031 769.488281 251.46875 776.355469 L 253.167969 783.550781 C 255.847656 794.671875 258.136719 804.351562 260.363281 810.761719 C 261.933594 815.273438 262.976562 817.167969 263.632812 818.019531 C 263.699219 818.085938 263.761719 818.214844 263.828125 818.28125 C 264.285156 818.019531 265.398438 817.367188 266.050781 817.039062 L 267.097656 816.320312 L 270.890625 821.550781 L 267.816406 815.992188 C 268.277344 815.730469 268.734375 815.46875 269.191406 815.140625 C 269.585938 814.816406 270.304688 814.488281 270.628906 814.355469 L 271.675781 813.832031 C 272.265625 813.507812 272.65625 813.308594 272.984375 813.179688 L 273.902344 812.851562 C 279.917969 810.5625 284.628906 811.085938 287.765625 811.480469 C 288.550781 811.542969 289.269531 811.675781 289.992188 811.675781 L 291.234375 811.609375 C 291.234375 811.609375 291.429688 811.542969 291.886719 811.347656 C 291.953125 811.28125 292.605469 810.824219 293.585938 809.320312 C 295.875 805.917969 298.492188 799.378906 301.828125 788.785156 C 303.527344 783.222656 305.425781 776.945312 307.585938 769.164062 L 311.050781 757.257812 C 312.359375 752.746094 313.667969 748.234375 315.105469 744.046875 C 316.675781 739.011719 317.984375 735.28125 319.226562 732.46875 L 320.140625 730.441406 C 320.601562 729.527344 320.925781 728.808594 321.320312 728.152344 C 322.234375 726.519531 323.214844 725.210938 324.261719 724.292969 C 328.839844 720.4375 333.550781 721.546875 336.230469 724.292969 C 337.210938 725.277344 338.128906 726.582031 338.914062 728.347656 C 339.175781 729.003906 339.5 729.722656 339.761719 730.507812 C 340.023438 731.160156 340.285156 732.011719 340.546875 732.863281 C 342.3125 738.8125 343.882812 748.496094 345.585938 763.277344 C 346.890625 775.246094 348.265625 790.875 349.902344 812.394531 L 354.152344 874.59375 C 355.65625 896.765625 357.226562 920.117188 358.925781 943.203125 C 360.890625 969.691406 362.851562 991.34375 364.746094 1009.394531 C 365.269531 1014.496094 365.859375 1019.402344 366.382812 1024.175781 L 368.148438 1037.648438 C 368.738281 1041.507812 369.261719 1045.039062 369.847656 1048.246094 C 369.847656 1048.046875 369.914062 1047.917969 369.914062 1047.722656 C 370.371094 1043.730469 370.832031 1039.285156 371.289062 1034.3125 C 371.746094 1029.277344 372.203125 1023.78125 372.597656 1017.832031 C 373.445312 1005.925781 374.296875 992.386719 375.082031 977.410156 C 375.867188 962.300781 376.652344 945.820312 377.371094 928.226562 C 378.089844 910.632812 378.808594 892.058594 379.53125 872.699219 L 385.875 688.058594 C 386.59375 667.457031 387.378906 647.183594 388.164062 627.496094 C 388.949219 607.9375 389.796875 589.035156 390.648438 571.246094 L 393.394531 521.605469 C 393.851562 514.019531 394.375 506.757812 394.898438 499.957031 C 395.421875 493.21875 395.945312 486.875 396.46875 481.054688 C 396.730469 478.109375 396.992188 475.234375 397.320312 472.617188 C 397.582031 470 397.910156 467.449219 398.171875 465.03125 C 398.433594 462.609375 398.757812 460.320312 399.085938 458.226562 L 400 452.277344 C 400.65625 448.417969 401.375 445.34375 402.09375 442.859375 C 403.011719 439.71875 404.054688 437.496094 405.363281 435.988281 C 407.652344 433.4375 410.792969 432.589844 413.671875 433.636719 C 419.359375 435.664062 424.265625 437.429688 429.824219 551.101562 C 431.394531 582.496094 432.898438 621.609375 434.601562 674.195312 C 435.777344 710.296875 436.957031 748.035156 438.066406 785.382812 L 438.917969 812.722656 C 440.488281 863.867188 441.796875 905.660156 443.167969 943.140625 L 445.457031 997.949219 C 446.375 1016.328125 447.160156 1030.648438 447.941406 1041.835938 C 448.269531 1046.214844 448.53125 1050.335938 448.859375 1054.195312 C 449.054688 1052.496094 449.316406 1050.796875 449.511719 1049.027344 L 450.492188 1040.070312 C 451.148438 1033.984375 451.800781 1027.707031 452.390625 1021.363281 C 453.632812 1008.542969 454.746094 995.527344 455.855469 982.578125 C 456.96875 969.628906 457.949219 956.742188 458.929688 944.316406 L 466.453125 851.179688 C 467.171875 843.136719 467.957031 835.808594 468.609375 829.398438 C 469.332031 822.925781 470.050781 817.105469 470.703125 812.132812 C 471.421875 807.03125 472.144531 802.714844 472.863281 799.183594 C 473.648438 795.257812 474.433594 792.25 475.28125 789.960938 C 476.394531 786.691406 477.703125 784.53125 479.402344 783.09375 C 480.320312 782.175781 481.5625 781.394531 483 781 C 484.570312 780.476562 486.207031 780.476562 487.773438 780.933594 C 490.71875 781.71875 492.875 783.746094 494.96875 785.773438 L 496.800781 787.410156 C 496.867188 787.476562 497.191406 787.671875 497.519531 788 L 497.519531 787.933594 L 497.714844 788.0625 C 497.78125 788.0625 497.847656 788.128906 497.847656 788.128906 C 498.042969 788.128906 498.238281 788.195312 498.4375 788.195312 C 498.960938 788.261719 499.875 788.457031 500.789062 788.71875 C 501.183594 788.847656 501.640625 788.980469 502.097656 789.109375 L 502.359375 789.175781 C 502.816406 789.175781 503.667969 789.371094 504.519531 789.503906 C 505.238281 789.632812 505.890625 789.828125 506.613281 790.027344 C 506.742188 790.027344 506.9375 790.089844 507.070312 790.089844 C 507.199219 790.089844 507.59375 790.15625 507.984375 790.289062 C 508.902344 790.484375 509.683594 790.746094 510.46875 791.007812 C 510.863281 791.136719 511.253906 791.335938 511.648438 791.464844 C 511.84375 791.53125 511.515625 791.464844 511.253906 791.398438 C 513.347656 792.054688 514.851562 792.902344 516.226562 793.949219 C 516.617188 794.210938 517.011719 794.605469 517.46875 794.929688 C 518.320312 795.652344 518.972656 796.238281 519.5625 796.894531 C 520.609375 798.003906 521.65625 799.378906 522.570312 800.882812 C 524.140625 803.238281 525.710938 806.441406 527.34375 810.433594 C 528.652344 813.703125 530.089844 817.628906 531.726562 822.792969 L 539.3125 846.863281 C 540.292969 849.871094 541.277344 852.945312 542.324219 856.085938 C 543.433594 859.355469 544.546875 862.558594 545.722656 865.632812 C 546.3125 867.335938 546.964844 868.839844 547.554688 870.34375 L 549.515625 874.789062 C 549.910156 875.707031 550.300781 876.492188 550.628906 877.144531 C 550.695312 876.949219 550.761719 876.753906 550.824219 876.558594 C 552.394531 871.195312 553.898438 862.886719 555.402344 851.179688 C 556.710938 841.367188 558.019531 829.335938 559.65625 812.199219 L 563.90625 765.695312 C 564.625 757.585938 565.410156 749.539062 566.195312 741.5625 C 566.980469 733.515625 567.832031 725.601562 568.679688 717.882812 C 569.53125 710.101562 570.445312 702.578125 571.425781 695.386719 C 572.410156 688.257812 573.457031 681.585938 574.566406 675.503906 C 574.828125 674 575.089844 672.429688 575.417969 670.988281 C 575.679688 669.550781 576.007812 668.175781 576.269531 666.867188 C 576.855469 664.121094 577.511719 661.636719 578.164062 659.347656 C 578.492188 658.171875 578.820312 656.992188 579.144531 655.945312 C 579.539062 654.769531 579.863281 653.789062 580.257812 652.871094 C 581.042969 650.910156 581.890625 649.144531 582.808594 647.707031 C 583.984375 645.679688 585.554688 644.171875 587.515625 643.257812 C 590.199219 642.015625 593.078125 642.210938 595.496094 643.648438 C 597.394531 644.632812 598.703125 646.660156 599.617188 648.492188 C 600.402344 650.058594 601.054688 651.761719 601.710938 653.851562 C 602.296875 655.75 602.886719 657.972656 603.476562 660.65625 C 604 663.140625 604.523438 665.953125 605.046875 668.960938 C 606.09375 675.109375 606.941406 681.976562 607.859375 689.957031 C 609.492188 704.542969 611.0625 722.789062 612.699219 745.878906 C 613.417969 756.34375 614.136719 767.265625 614.855469 778.382812 L 617.34375 818.085938 C 618.648438 839.015625 619.894531 860.074219 621.265625 879.761719 C 621.984375 890.488281 622.769531 900.953125 623.554688 910.828125 C 623.949219 915.734375 624.339844 920.574219 624.796875 925.152344 L 626.039062 938.363281 C 626.957031 946.996094 627.871094 954.390625 628.722656 960.472656 C 628.984375 962.042969 629.179688 963.480469 629.441406 964.917969 L 630.097656 968.515625 L 630.621094 966.292969 C 630.882812 964.984375 631.207031 963.609375 631.46875 962.171875 L 632.320312 957.722656 C 632.910156 954.519531 633.433594 951.183594 633.953125 947.78125 L 636.964844 925.347656 C 637.945312 917.371094 638.859375 909.195312 639.710938 901.082031 L 646.644531 831.429688 C 647.363281 824.496094 648.082031 818.019531 648.738281 812.066406 C 652.792969 777.273438 655.867188 769.292969 660.445312 766.089844 L 661.03125 765.761719 C 661.816406 765.304688 663.191406 764.386719 665.675781 764.453125 C 666.855469 764.453125 668.75 764.78125 670.710938 766.285156 C 671.757812 767.070312 672.738281 768.117188 673.65625 769.488281 L 674.179688 770.273438 C 674.832031 771.253906 675.160156 771.777344 675.488281 772.433594 C 675.8125 773.085938 676.207031 773.675781 676.535156 774.394531 L 676.992188 775.308594 L 671.695312 778.90625 L 677.382812 776.03125 C 678.039062 777.273438 678.691406 778.710938 679.347656 780.347656 C 679.871094 781.523438 680.523438 782.960938 681.242188 784.53125 L 683.203125 788.785156 C 687 797.15625 690.464844 802.125 693.472656 803.628906 C 694.453125 804.089844 695.371094 804.351562 696.285156 804.613281 L 697.203125 804.875 C 699.164062 805.527344 701.191406 806.3125 703.21875 807.6875 C 705.3125 809.058594 707.144531 810.824219 708.910156 812.984375 C 709.300781 813.441406 709.757812 814.03125 710.152344 814.617188 C 710.675781 815.402344 711.132812 816.058594 711.589844 816.777344 C 711.984375 817.429688 712.441406 818.152344 712.898438 818.871094 C 713.226562 819.457031 713.617188 820.179688 714.011719 820.898438 L 715.515625 823.839844 C 715.90625 824.625 716.167969 825.148438 716.363281 825.671875 L 722.121094 839.472656 L 723.886719 844.050781 C 724.539062 845.816406 725.128906 847.515625 725.785156 849.152344 L 727.8125 854.582031 C 729.183594 858.308594 730.363281 861.1875 731.277344 863.34375 C 731.277344 863.214844 731.34375 863.148438 731.34375 863.019531 C 732.0625 859.945312 732.78125 855.890625 733.566406 850.589844 C 734.941406 841.5 736.25 829.335938 737.816406 812.265625 C 739.191406 796.828125 740.566406 779.105469 742.070312 759.875 L 746.84375 698.261719 C 748.21875 681.652344 750.246094 656.863281 752.664062 633.644531 C 755.347656 608.199219 757.765625 590.542969 760.121094 577.917969 C 761.691406 569.742188 763.0625 564.511719 764.566406 561.4375 C 766.792969 556.792969 769.929688 555.8125 772.21875 555.8125 C 774.050781 555.8125 777.386719 556.464844 779.546875 560.980469 C 780.917969 563.855469 782.097656 568.695312 783.207031 576.609375 C 783.730469 580.140625 784.191406 584.199219 784.648438 588.777344 C 785.105469 593.417969 785.5625 598.585938 786.019531 604.210938 C 787.65625 625.074219 789.226562 653.984375 790.796875 692.574219 C 791.515625 710.363281 792.234375 729.460938 792.953125 749.605469 L 804.074219 1079.117188 L 806.820312 1137.914062 C 807.800781 1156.816406 808.847656 1173.625 809.894531 1187.882812 L 810.742188 1198.804688 C 811.003906 1202.339844 811.332031 1205.542969 811.59375 1208.683594 C 811.988281 1213.195312 812.445312 1217.382812 812.835938 1221.304688 C 813.097656 1218.558594 813.292969 1215.617188 813.554688 1212.605469 C 814.078125 1206.066406 814.539062 1198.804688 815.0625 1190.957031 C 815.976562 1175.390625 816.890625 1157.273438 817.808594 1135.558594 C 821.40625 1049.421875 824.28125 923.648438 826.832031 812.65625 L 827.09375 800.097656 C 828.402344 743.785156 829.710938 687.210938 831.085938 633.644531 C 831.804688 604.867188 832.589844 577.003906 833.375 550.449219 C 834.160156 524.023438 835.007812 498.910156 835.859375 475.691406 L 837.234375 442.464844 C 837.691406 431.933594 838.148438 421.929688 838.671875 412.511719 L 840.960938 375.097656 C 841.222656 371.566406 841.484375 368.164062 841.746094 364.960938 L 843.445312 348.871094 C 844.164062 343.574219 844.820312 340.105469 845.410156 337.882812 C 845.605469 337.230469 845.800781 336.574219 845.996094 335.988281 C 846.128906 335.660156 846.257812 335.332031 846.390625 335.003906 L 847.042969 333.699219 C 848.746094 330.886719 851.097656 330.101562 852.40625 329.902344 L 853.714844 329.707031 L 857.640625 331.210938 L 858.488281 331.996094 C 859.144531 332.652344 859.601562 333.304688 860.058594 334.089844 L 860.515625 335.003906 C 860.714844 335.464844 860.910156 335.855469 861.105469 336.445312 C 861.238281 336.835938 861.5 337.554688 861.695312 338.339844 C 862.085938 339.714844 862.480469 341.285156 862.871094 343.441406 C 863.066406 344.359375 863.199219 345.339844 863.394531 346.386719 L 863.917969 349.65625 C 864.246094 352.074219 864.574219 354.625 864.898438 357.375 C 865.03125 358.683594 865.226562 360.1875 865.355469 361.757812 L 867.644531 387.785156 C 868.234375 395.898438 868.757812 404.464844 869.347656 413.425781 L 872.421875 473.269531 L 875.167969 541.097656 C 876.019531 564.574219 876.867188 588.121094 877.652344 612.257812 L 884.195312 812.789062 C 884.914062 832.277344 885.566406 850.527344 886.285156 867.007812 C 887.007812 883.488281 887.726562 898.402344 888.445312 911.285156 C 888.96875 920.96875 889.558594 929.402344 890.144531 936.664062 L 904.339844 840.519531 C 904.535156 839.472656 904.730469 838.558594 904.992188 837.640625 L 905.84375 834.109375 C 906.300781 832.277344 906.691406 830.707031 907.152344 829.140625 C 908.917969 822.859375 910.683594 818.542969 912.710938 815.140625 C 914.476562 812.132812 916.242188 810.300781 917.617188 808.796875 C 918.925781 807.425781 920.035156 806.3125 921.148438 805.199219 C 922.847656 803.5 924.679688 801.667969 926.707031 799.378906 C 930.171875 795.585938 934.230469 789.699219 939.199219 781.261719 L 941.160156 777.992188 C 941.621094 777.273438 941.945312 776.683594 942.339844 776.09375 L 943.1875 774.722656 C 943.972656 773.480469 944.695312 772.433594 945.414062 771.582031 C 945.9375 770.796875 946.722656 769.75 947.503906 768.964844 C 948.550781 767.917969 949.597656 767.070312 950.777344 766.480469 C 951.496094 766.089844 952.28125 765.828125 953 765.695312 L 953.589844 765.566406 C 953.71875 765.5 953.914062 765.5 954.113281 765.5 C 955.550781 765.238281 959.539062 765.042969 962.875 769.292969 C 966.210938 773.414062 969.351562 782.308594 973.210938 812.132812 C 974.582031 822.792969 976.023438 835.351562 977.527344 849.023438 L 982.300781 893.429688 C 983.738281 906.773438 985.769531 924.300781 988.121094 941.175781 C 988.644531 945.035156 989.234375 948.894531 989.824219 952.621094 C 990.410156 956.480469 991 960.210938 991.589844 963.808594 C 992.636719 969.957031 993.679688 975.382812 994.664062 980.027344 C 995.121094 976.5625 995.644531 972.636719 996.101562 968.1875 C 997.738281 952.882812 999.304688 931.5625 1000.875 902.980469 C 1002.511719 873.484375 1004.015625 839.210938 1005.128906 812.65625 L 1007.023438 767.917969 C 1009.246094 714.679688 1011.535156 659.609375 1014.21875 610.816406 C 1015.070312 595.1875 1015.984375 580.207031 1016.964844 566.210938 L 1018.46875 546.328125 C 1018.992188 539.984375 1019.515625 533.96875 1020.039062 528.277344 L 1021.738281 512.316406 C 1022.328125 507.476562 1022.917969 503.097656 1023.570312 499.171875 C 1024.226562 495.183594 1024.878906 491.648438 1025.535156 488.707031 C 1025.730469 487.988281 1025.859375 487.203125 1026.058594 486.546875 C 1026.253906 485.761719 1026.449219 485.109375 1026.644531 484.457031 C 1027.039062 483.148438 1027.496094 481.96875 1027.953125 480.988281 C 1030.699219 474.972656 1034.691406 474.578125 1036.914062 474.90625 C 1043.257812 475.820312 1045.351562 483.082031 1047.445312 498.058594 C 1047.96875 501.984375 1048.554688 506.628906 1049.078125 511.730469 C 1049.601562 516.832031 1050.125 522.390625 1050.582031 528.605469 C 1051.566406 540.636719 1052.480469 554.894531 1053.332031 570.921875 C 1056.863281 635.476562 1059.804688 729.65625 1062.421875 812.722656 L 1062.617188 818.085938 C 1063.925781 861.121094 1065.300781 904.289062 1066.738281 944.773438 C 1068.4375 993.109375 1069.945312 1029.472656 1071.511719 1059.296875 C 1073.214844 1091.148438 1074.914062 1114.367188 1076.679688 1130 L 1076.941406 1128.167969 C 1077.203125 1125.878906 1077.53125 1123.394531 1077.792969 1120.84375 C 1078.378906 1115.742188 1078.902344 1110.25 1079.425781 1104.363281 C 1080.472656 1092.851562 1081.453125 1079.378906 1082.5 1064.203125 C 1082.957031 1056.878906 1083.480469 1049.226562 1083.941406 1041.378906 L 1087.800781 966.75 L 1094.339844 812.527344 C 1095.972656 774.65625 1097.28125 747.972656 1098.589844 725.863281 C 1099.308594 713.4375 1100.09375 702.058594 1100.878906 692.246094 C 1101.664062 682.238281 1102.515625 673.867188 1103.429688 667.261719 C 1104.347656 660.066406 1105.328125 654.898438 1106.375 651.367188 C 1107.289062 648.425781 1108.730469 644.894531 1112.0625 643.324219 C 1114.027344 642.40625 1116.183594 642.40625 1118.082031 643.257812 C 1120.699219 644.433594 1122.136719 646.726562 1122.921875 648.359375 C 1123.3125 649.144531 1123.707031 650.058594 1124.097656 651.105469 C 1124.359375 651.890625 1124.6875 652.808594 1124.949219 653.722656 C 1126.324219 658.171875 1127.695312 663.925781 1129.199219 671.644531 L 1131.226562 682.957031 C 1131.882812 686.6875 1132.535156 690.480469 1133.125 694.40625 L 1142.414062 757.714844 C 1146.074219 783.027344 1148.691406 799.96875 1151.371094 811.414062 C 1152.679688 816.972656 1153.921875 821.160156 1155.230469 823.90625 L 1156.015625 825.410156 C 1156.210938 825.671875 1156.34375 825.933594 1156.539062 826.128906 L 1156.472656 826.328125 C 1156.472656 826.328125 1156.472656 826.328125 1156.539062 826.328125 L 1157.324219 826.328125 C 1157.390625 826.328125 1157.652344 826.261719 1157.914062 826.195312 L 1159.089844 826 C 1159.023438 825.933594 1159.546875 825.867188 1160.007812 825.738281 L 1162.035156 825.34375 L 1163.601562 831.625 L 1162.816406 825.28125 L 1164.78125 825.019531 C 1165.433594 824.953125 1165.890625 824.886719 1166.351562 824.820312 C 1174.789062 823.121094 1179.039062 817.5625 1184.53125 809.320312 L 1188.847656 803.042969 C 1190.8125 800.296875 1192.511719 798.136719 1194.210938 796.304688 C 1196.5 793.820312 1198.855469 791.859375 1201.277344 790.289062 L 1202.324219 789.632812 C 1203.566406 788.847656 1204.285156 788.390625 1205.070312 788 C 1206.703125 787.082031 1208.40625 786.363281 1210.105469 785.777344 C 1212.003906 785.121094 1213.898438 784.792969 1215.664062 784.664062 C 1216.644531 784.597656 1217.5625 784.597656 1218.476562 784.730469 L 1219.195312 784.859375 C 1219.589844 784.859375 1220.046875 784.925781 1220.570312 785.054688 C 1224.035156 785.644531 1227.242188 787.476562 1230.054688 790.550781 C 1232.082031 792.773438 1233.976562 795.78125 1235.875 799.707031 C 1237.3125 802.648438 1238.753906 806.183594 1240.386719 810.761719 C 1241.238281 813.113281 1242.089844 815.535156 1242.9375 818.019531 L 1244.703125 823.054688 C 1245.425781 825.082031 1246.144531 827.175781 1246.929688 829.269531 C 1247.320312 830.316406 1247.714844 831.296875 1248.105469 832.277344 L 1249.347656 835.417969 C 1251.179688 839.863281 1252.945312 843.460938 1254.710938 846.339844 C 1256.609375 849.480469 1258.503906 851.703125 1260.269531 852.878906 C 1260.664062 853.140625 1260.925781 853.273438 1261.121094 853.339844 C 1261.121094 853.078125 1262.363281 851.898438 1264 847.910156 C 1267.464844 839.539062 1270.277344 824.820312 1272.699219 811.742188 L 1274.332031 802.714844 C 1276.621094 789.960938 1278.976562 776.816406 1281.855469 765.109375 C 1283.882812 756.933594 1285.84375 750.523438 1288.003906 745.421875 C 1289.3125 742.347656 1290.617188 739.796875 1292.058594 737.636719 C 1292.910156 736.394531 1293.691406 735.28125 1294.609375 734.367188 C 1295.917969 733.058594 1297.027344 732.207031 1298.207031 731.554688 C 1301.410156 729.722656 1304.878906 729.527344 1308.015625 730.902344 C 1313.640625 733.320312 1317.433594 740.382812 1320.769531 754.445312 C 1324.300781 769.164062 1327.113281 790.09375 1329.925781 812.132812 L 1330.449219 816.320312 C 1333 836.464844 1335.683594 857.261719 1338.886719 873.613281 C 1339.738281 877.867188 1340.589844 881.855469 1341.570312 885.519531 C 1342.027344 887.285156 1342.484375 888.917969 1343.007812 890.488281 C 1343.464844 891.863281 1343.925781 893.171875 1344.449219 894.414062 C 1345.230469 896.375 1345.953125 897.683594 1346.476562 898.535156 C 1346.800781 897.945312 1347.128906 897.226562 1347.457031 896.507812 C 1348.371094 894.347656 1349.351562 891.601562 1350.203125 888.265625 C 1350.660156 886.566406 1351.117188 884.796875 1351.578125 882.902344 C 1352.035156 880.941406 1352.425781 878.910156 1352.882812 876.753906 C 1354.453125 868.839844 1355.957031 859.355469 1357.59375 846.863281 C 1358.96875 836.59375 1360.273438 825.605469 1361.582031 814.683594 L 1361.84375 812.328125 C 1364.59375 789.308594 1367.40625 765.433594 1371 747.710938 C 1371.917969 743.066406 1372.898438 739.078125 1373.878906 735.542969 C 1374.402344 733.714844 1374.925781 731.949219 1375.515625 730.378906 C 1375.777344 729.527344 1376.101562 728.742188 1376.363281 728.023438 C 1376.691406 727.171875 1377.019531 726.453125 1377.347656 725.734375 C 1381.925781 715.988281 1387.746094 715.007812 1391.867188 715.921875 C 1398.339844 717.363281 1401.808594 724.097656 1403.835938 729.003906 C 1404.421875 730.441406 1405.011719 732.144531 1405.601562 733.910156 C 1406.125 735.609375 1406.648438 737.441406 1407.171875 739.339844 C 1408.152344 743.066406 1409.132812 747.1875 1409.984375 751.632812 C 1413.253906 767.855469 1415.933594 788.128906 1418.550781 807.75 L 1419.140625 812.199219 C 1421.886719 833.257812 1424.699219 853.339844 1428.035156 866.941406 C 1430.0625 875.25 1431.894531 879.171875 1433.003906 881.003906 C 1433.789062 880.15625 1435.097656 878.386719 1436.601562 874.921875 C 1438.433594 870.671875 1440.265625 864.980469 1442.097656 857.65625 C 1444.972656 846.078125 1447.394531 832.472656 1449.75 819.328125 L 1451.058594 811.871094 C 1454.328125 794.015625 1457.007812 781.132812 1460.476562 772.238281 C 1462.828125 766.285156 1465.378906 762.425781 1468.519531 760.136719 C 1472.835938 756.996094 1478.132812 757.0625 1483.105469 760.269531 C 1486.507812 762.492188 1489.582031 765.890625 1492.523438 770.730469 C 1494.683594 774.328125 1496.773438 778.582031 1498.800781 783.878906 C 1501.289062 790.15625 1503.382812 796.632812 1505.34375 802.976562 C 1506.191406 805.722656 1507.109375 808.40625 1507.960938 810.957031 C 1509.464844 815.535156 1510.769531 818.871094 1512.015625 821.488281 C 1512.601562 822.859375 1513.257812 824.101562 1513.910156 825.148438 C 1514.5 826.066406 1515.023438 826.914062 1515.675781 827.570312 C 1516.132812 828.09375 1516.789062 828.679688 1517.378906 828.746094 C 1517.703125 828.746094 1518.097656 828.746094 1518.488281 828.617188 C 1518.882812 828.484375 1519.207031 828.355469 1519.601562 828.222656 C 1520.386719 827.894531 1520.84375 827.699219 1521.367188 827.4375 C 1525.75 825.28125 1529.28125 821.617188 1532.421875 818.476562 L 1532.878906 817.953125 C 1534.253906 816.582031 1535.496094 815.207031 1536.738281 813.898438 C 1538.632812 811.804688 1540.464844 809.910156 1542.230469 808.273438 C 1544.128906 806.507812 1545.960938 805.199219 1547.855469 804.21875 C 1549.949219 803.109375 1552.171875 802.324219 1554.460938 801.863281 C 1556.882812 801.472656 1559.433594 801.40625 1562.246094 801.800781 C 1563.421875 801.929688 1564.730469 802.191406 1566.167969 802.519531 C 1567.28125 802.78125 1568.394531 803.042969 1569.636719 803.171875 C 1572.972656 803.761719 1575.585938 804.351562 1577.941406 804.875 C 1579.839844 805.265625 1581.539062 805.660156 1583.109375 805.921875 C 1585.988281 806.183594 1588.667969 806.445312 1591.351562 806.574219 C 1592.660156 806.640625 1593.902344 806.640625 1595.273438 806.640625 C 1595.992188 806.640625 1596.714844 806.640625 1597.433594 806.574219 C 1598.285156 806.574219 1598.9375 806.507812 1600.113281 806.507812 L 1747.277344 806.507812 L 1747.277344 819.261719 L 1600.113281 819.261719 C 1599.265625 819.261719 1598.546875 819.261719 1597.824219 819.328125 C 1596.976562 819.328125 1596.125 819.394531 1595.273438 819.394531 C 1593.769531 819.394531 1592.265625 819.394531 1590.761719 819.328125 C 1587.882812 819.199219 1584.941406 818.9375 1581.34375 818.609375 C 1579.183594 818.28125 1577.289062 817.824219 1575.195312 817.367188 C 1572.972656 816.90625 1570.484375 816.320312 1567.609375 815.796875 C 1566.300781 815.601562 1564.796875 815.273438 1563.355469 815.011719 C 1562.375 814.816406 1561.460938 814.554688 1560.609375 814.488281 C 1558.976562 814.292969 1557.730469 814.226562 1556.621094 814.421875 C 1555.640625 814.554688 1554.722656 814.945312 1553.808594 815.46875 C 1552.828125 815.992188 1551.847656 816.710938 1550.734375 817.691406 C 1549.230469 819.066406 1547.726562 820.703125 1546.089844 822.53125 C 1544.78125 823.90625 1543.472656 825.410156 1541.96875 826.914062 L 1541.511719 827.375 C 1537.847656 831.101562 1533.335938 835.679688 1527.058594 838.820312 C 1526.207031 839.277344 1525.355469 839.605469 1524.507812 839.929688 C 1523.851562 840.257812 1522.9375 840.585938 1522.019531 840.847656 C 1520.058594 841.433594 1518.097656 841.632812 1516.199219 841.433594 C 1512.472656 841.109375 1509.136719 839.34375 1506.257812 836.203125 C 1505.148438 834.960938 1504.101562 833.585938 1503.054688 831.820312 C 1502.136719 830.382812 1501.289062 828.679688 1500.371094 826.785156 C 1499 823.710938 1497.558594 819.980469 1495.859375 814.945312 C 1495.007812 812.328125 1494.09375 809.582031 1493.175781 806.769531 C 1491.214844 800.6875 1489.1875 794.34375 1486.898438 788.457031 C 1485.066406 783.8125 1483.300781 780.152344 1481.535156 777.207031 C 1479.640625 774.132812 1477.808594 771.976562 1476.105469 770.863281 C 1475.582031 770.535156 1475.320312 770.472656 1475.320312 770.472656 C 1475.648438 770.601562 1474.210938 771.777344 1472.3125 776.75 C 1468.914062 785.515625 1466.035156 800.558594 1463.613281 813.964844 L 1462.308594 821.355469 C 1459.953125 834.699219 1457.46875 848.5 1454.457031 860.535156 C 1452.429688 868.578125 1450.46875 874.855469 1448.308594 879.828125 C 1445.367188 886.566406 1441.964844 890.75 1437.976562 892.84375 C 1433.464844 895.132812 1427.054688 895 1422.277344 887.742188 C 1419.792969 883.816406 1417.636719 877.996094 1415.609375 869.753906 C 1412.074219 855.496094 1409.261719 835.027344 1406.386719 813.574219 L 1405.796875 809.125 C 1403.246094 789.699219 1400.628906 769.621094 1397.425781 753.859375 C 1396.574219 749.671875 1395.726562 745.8125 1394.742188 742.28125 C 1394.285156 740.582031 1393.828125 738.945312 1393.304688 737.441406 C 1392.847656 736.003906 1392.390625 734.628906 1391.929688 733.515625 C 1391.015625 731.359375 1390.296875 729.984375 1389.707031 729.136719 C 1389.445312 729.59375 1389.117188 730.117188 1388.792969 730.835938 C 1388.53125 731.359375 1388.332031 731.816406 1388.136719 732.339844 C 1387.941406 732.863281 1387.679688 733.515625 1387.484375 734.171875 C 1387.027344 735.542969 1386.566406 737.050781 1386.109375 738.617188 C 1385.261719 741.757812 1384.34375 745.550781 1383.492188 749.867188 C 1380.027344 767.070312 1377.214844 790.679688 1374.535156 813.441406 L 1374.273438 815.796875 C 1372.964844 826.785156 1371.65625 837.835938 1370.28125 848.171875 C 1368.582031 860.925781 1367.011719 870.671875 1365.441406 878.847656 C 1364.984375 881.136719 1364.527344 883.292969 1364.070312 885.386719 C 1363.609375 887.480469 1363.089844 889.441406 1362.566406 891.273438 C 1361.453125 895.261719 1360.339844 898.535156 1359.164062 901.214844 C 1358.507812 902.71875 1357.789062 904.09375 1357.070312 905.269531 C 1356.679688 905.925781 1356.285156 906.511719 1355.894531 907.101562 C 1355.304688 907.886719 1354.78125 908.476562 1354.257812 909 C 1351.511719 911.613281 1348.109375 912.660156 1344.773438 912.007812 C 1338.167969 910.765625 1334.636719 903.898438 1332.609375 898.859375 C 1332.019531 897.355469 1331.433594 895.785156 1330.84375 894.019531 C 1330.320312 892.253906 1329.730469 890.359375 1329.273438 888.394531 C 1328.292969 884.535156 1327.3125 880.285156 1326.460938 875.773438 C 1323.191406 859.027344 1320.445312 837.96875 1317.894531 817.628906 L 1317.371094 813.441406 C 1314.625 791.792969 1311.875 771.191406 1308.476562 757.128906 C 1306.449219 748.558594 1304.683594 744.832031 1303.636719 743.261719 C 1303.375 743.589844 1303.113281 743.980469 1302.785156 744.375 C 1301.804688 745.8125 1300.824219 747.710938 1299.839844 750.066406 C 1297.945312 754.511719 1296.179688 760.332031 1294.347656 767.855469 C 1291.601562 779.167969 1289.246094 792.183594 1287.023438 804.742188 L 1285.386719 813.769531 C 1282.246094 830.773438 1279.5 843.921875 1275.96875 852.488281 C 1274.074219 857.132812 1270.800781 863.542969 1264.589844 865.4375 C 1262.039062 866.222656 1257.984375 866.417969 1253.207031 863.148438 C 1249.9375 860.925781 1246.929688 857.523438 1243.984375 852.75 C 1241.828125 849.285156 1239.800781 845.097656 1237.707031 839.996094 C 1237.25 838.882812 1236.792969 837.773438 1236.398438 836.660156 C 1236.007812 835.613281 1235.550781 834.566406 1235.15625 833.457031 C 1234.371094 831.296875 1233.585938 829.140625 1232.800781 826.980469 L 1231.035156 821.878906 C 1230.1875 819.460938 1229.402344 817.039062 1228.550781 814.816406 C 1227.046875 810.628906 1225.804688 807.488281 1224.5625 804.9375 C 1223.253906 802.191406 1221.945312 800.164062 1220.769531 798.855469 C 1219.917969 797.941406 1219.199219 797.484375 1218.609375 797.351562 L 1217.433594 797.222656 C 1217.105469 797.15625 1216.84375 797.15625 1216.582031 797.222656 C 1215.929688 797.285156 1215.144531 797.417969 1214.292969 797.679688 C 1213.3125 798.007812 1212.332031 798.464844 1211.480469 798.921875 C 1211.023438 799.183594 1210.566406 799.445312 1210.105469 799.773438 C 1209.84375 799.96875 1209.453125 800.230469 1208.996094 800.425781 L 1208.277344 800.882812 C 1206.769531 801.867188 1205.265625 803.109375 1203.695312 804.808594 C 1202.390625 806.246094 1201.015625 807.949219 1199.445312 810.171875 L 1195.261719 816.253906 C 1190.160156 823.839844 1183.226562 834.175781 1168.96875 837.117188 C 1167.984375 837.316406 1167.070312 837.445312 1166.15625 837.511719 L 1165.5 837.578125 C 1165.433594 837.578125 1164.976562 837.640625 1164.519531 837.707031 L 1163.929688 837.773438 C 1163.667969 837.839844 1163.472656 837.902344 1163.210938 837.902344 C 1162.886719 837.96875 1162.558594 838.035156 1162.296875 838.101562 C 1162.035156 838.164062 1161.773438 838.230469 1161.511719 838.296875 L 1160.53125 838.492188 C 1159.679688 838.6875 1158.632812 838.882812 1157.457031 838.882812 C 1156.410156 838.949219 1155.429688 838.882812 1154.449219 838.6875 C 1154.316406 838.6875 1153.988281 838.621094 1153.597656 838.492188 C 1153.007812 838.359375 1152.421875 838.164062 1151.832031 837.902344 C 1151.375 837.707031 1150.785156 837.378906 1150.261719 837.054688 C 1149.871094 836.792969 1149.542969 836.59375 1149.214844 836.332031 C 1148.496094 835.808594 1147.710938 835.027344 1146.992188 834.175781 C 1146.535156 833.652344 1145.945312 832.867188 1145.289062 831.820312 C 1145.03125 831.429688 1144.769531 830.90625 1144.507812 830.445312 C 1144.308594 830.121094 1144.113281 829.664062 1143.851562 829.140625 C 1142.152344 825.542969 1140.648438 820.636719 1139.144531 814.097656 C 1136.394531 802.191406 1133.714844 784.992188 1129.984375 759.285156 L 1120.699219 696.171875 C 1120.109375 692.378906 1119.457031 688.648438 1118.800781 684.988281 L 1116.773438 673.867188 C 1116.511719 672.496094 1116.25 671.1875 1115.988281 669.945312 C 1115.203125 676.15625 1114.421875 684.003906 1113.699219 693.164062 C 1112.914062 702.90625 1112.128906 714.15625 1111.410156 726.519531 C 1110.101562 748.558594 1108.796875 775.179688 1107.160156 812.984375 L 1096.761719 1042.03125 C 1096.300781 1049.878906 1095.84375 1057.597656 1095.320312 1064.921875 C 1094.339844 1080.164062 1093.292969 1093.765625 1092.246094 1105.410156 C 1091.722656 1111.359375 1091.136719 1116.984375 1090.546875 1122.152344 C 1090.285156 1124.769531 1089.957031 1127.253906 1089.632812 1129.609375 L 1088.714844 1136.410156 C 1088.386719 1138.503906 1088.0625 1140.53125 1087.734375 1142.363281 L 1086.753906 1147.398438 C 1086.359375 1149.097656 1086.035156 1150.539062 1085.640625 1151.847656 C 1085.445312 1152.566406 1085.25 1153.15625 1085.054688 1153.742188 C 1084.792969 1154.460938 1084.59375 1155.050781 1084.332031 1155.574219 C 1081.71875 1161.589844 1077.664062 1162.050781 1075.4375 1161.722656 C 1068.964844 1160.808594 1066.871094 1153.285156 1064.777344 1136.738281 C 1062.75 1120.910156 1060.789062 1095.730469 1058.890625 1059.691406 C 1057.320312 1029.800781 1055.816406 993.371094 1054.117188 944.972656 C 1052.675781 904.484375 1051.371094 861.316406 1049.996094 818.214844 L 1049.800781 812.851562 C 1047.25 729.855469 1044.304688 635.738281 1040.773438 571.3125 C 1039.921875 555.355469 1039.007812 541.226562 1038.027344 529.324219 C 1037.570312 523.242188 1037.046875 517.746094 1036.523438 512.777344 C 1036.261719 509.964844 1035.933594 507.347656 1035.671875 504.863281 C 1035.28125 507.542969 1034.886719 510.488281 1034.496094 513.5625 L 1032.792969 529.257812 C 1032.269531 534.816406 1031.75 540.835938 1031.226562 547.046875 L 1029.71875 566.867188 C 1028.738281 580.796875 1027.824219 595.710938 1026.972656 611.273438 C 1024.292969 660 1022.003906 715.007812 1019.777344 768.246094 L 1017.882812 812.984375 C 1016.769531 839.539062 1015.265625 873.875 1013.632812 903.4375 C 1012.0625 932.214844 1010.492188 953.800781 1008.789062 969.300781 C 1007.875 978 1006.960938 984.671875 1005.980469 989.773438 C 1005.457031 992.453125 1004.933594 994.742188 1004.277344 996.640625 C 1003.492188 998.996094 1002.707031 1000.695312 1001.660156 1002.003906 C 999.894531 1004.226562 997.410156 1005.339844 994.730469 1005.144531 C 991.785156 1004.882812 989.367188 1003.050781 987.535156 999.648438 C 986.03125 996.835938 984.589844 992.519531 983.023438 985.914062 C 981.714844 980.355469 980.339844 973.488281 979.03125 965.574219 C 978.441406 961.910156 977.789062 958.050781 977.199219 954.191406 C 976.613281 950.464844 976.089844 946.539062 975.5 942.617188 C 973.144531 925.609375 971.117188 907.953125 969.679688 894.476562 L 964.90625 850.066406 C 963.398438 836.464844 962.027344 824.039062 960.652344 813.441406 C 958.101562 793.949219 956.007812 784.664062 954.570312 780.28125 C 954.375 780.542969 954.179688 780.804688 954.046875 781.132812 L 951.757812 784.792969 C 951.5625 785.121094 951.300781 785.515625 951.039062 785.90625 L 950.1875 787.34375 C 944.695312 796.632812 940.246094 803.042969 936.191406 807.488281 C 934.035156 809.976562 932.070312 811.9375 930.175781 813.769531 C 929.128906 814.816406 928.082031 815.863281 927.035156 816.972656 C 925.660156 818.476562 924.679688 819.457031 923.632812 821.226562 C 922.71875 822.792969 921.28125 825.605469 919.511719 831.820312 C 919.054688 833.519531 918.664062 835.023438 918.207031 836.660156 L 917.550781 839.601562 C 917.289062 840.910156 917.09375 841.695312 916.898438 842.675781 L 912.1875 869.492188 L 902.574219 940.066406 C 901.265625 949.746094 900.089844 956.742188 898.976562 961.453125 L 898.191406 964.789062 C 897.863281 966.097656 897.601562 967.207031 897.277344 968.125 C 896.554688 970.28125 895.574219 972.769531 893.417969 974.273438 L 890.605469 976.300781 L 886.746094 975.1875 C 882.691406 973.617188 881.511719 969.367188 880.664062 965.050781 C 878.960938 956.742188 877.328125 939.214844 875.757812 911.613281 C 875.039062 898.664062 874.320312 883.75 873.597656 867.140625 C 872.878906 850.589844 872.160156 832.277344 871.507812 812.789062 L 864.964844 612.257812 C 864.179688 588.121094 863.332031 564.640625 862.480469 541.160156 L 856.660156 413.816406 C 856.136719 404.921875 855.546875 396.421875 854.960938 388.375 L 853.847656 374.574219 C 853.847656 374.96875 853.78125 375.425781 853.78125 375.816406 L 851.492188 412.96875 C 851.035156 422.320312 850.511719 432.328125 850.054688 442.792969 L 848.746094 475.953125 C 847.894531 499.105469 847.046875 524.15625 846.261719 550.578125 C 845.476562 577.132812 844.691406 604.996094 843.972656 633.710938 C 842.597656 687.277344 841.289062 743.851562 839.980469 800.164062 L 839.71875 812.722656 C 837.167969 923.78125 834.292969 1049.683594 830.695312 1135.886719 C 829.777344 1157.667969 828.863281 1175.847656 827.945312 1191.480469 C 827.488281 1199.460938 826.964844 1206.785156 826.441406 1213.390625 C 826.179688 1216.726562 825.917969 1219.867188 825.65625 1222.808594 C 825.394531 1225.753906 825.132812 1228.433594 824.808594 1230.984375 C 824.285156 1236.152344 823.695312 1240.46875 823.105469 1244 C 822.453125 1247.792969 821.734375 1250.605469 821.015625 1252.636719 C 820.492188 1254.007812 819.769531 1255.511719 818.527344 1256.753906 C 817.414062 1258.652344 815.519531 1259.4375 813.621094 1259.4375 Z M 452.652344 1082.710938 L 447.160156 1085.722656 L 453.042969 1083.234375 C 452.980469 1083.171875 452.847656 1082.972656 452.652344 1082.710938 Z M 443.953125 1082.648438 Z M 632.972656 978.980469 L 628.265625 983.167969 L 633.429688 979.4375 C 633.429688 979.4375 633.234375 979.242188 632.972656 978.980469 Z M 885.042969 965.636719 Z M 12.347656 945.230469 Z M 1434.050781 881.984375 Z M 1156.800781 826.457031 L 1153.988281 832.082031 L 1157.453125 826.71875 L 1156.800781 826.457031 C 1156.867188 826.457031 1156.867188 826.457031 1156.800781 826.457031 Z M 1156.867188 826.457031 Z M 275.992188 826.128906 Z M 276.582031 825.800781 C 276.453125 825.867188 276.320312 826 276.191406 826.0625 C 276.320312 825.933594 276.453125 825.867188 276.582031 825.800781 Z M 495.753906 790.746094 L 494.640625 793.625 L 497.191406 789.175781 Z M 488.234375 792.511719 Z M 502.882812 789.4375 L 503.210938 789.566406 C 503.078125 789.4375 502.949219 789.4375 502.882812 789.4375 Z M 496.800781 787.410156 L 496.929688 787.539062 C 496.929688 787.539062 496.867188 787.476562 496.800781 787.410156 Z M 149.632812 777.730469 Z M 228.117188 739.597656 C 227.988281 739.859375 227.855469 740.1875 227.726562 740.582031 L 232.761719 737.046875 Z M 228.117188 739.597656 " fill-opacity="1" fill-rule="nonzero"/></g><g clip-path="url(#11fd310c65)"><path fill="#0f3d2e" d="M 750.425781 1459.855469 C 358.675781 1459.855469 41.339844 1140.332031 41.339844 750.773438 C 41.339844 361.214844 358.675781 41.6875 750.425781 41.6875 C 1142.171875 41.6875 1459.507812 359.023438 1459.507812 750.773438 C 1459.507812 1142.519531 1139.984375 1459.855469 750.425781 1459.855469 Z M 750.425781 85.457031 C 382.75 85.457031 85.109375 383.097656 85.109375 750.773438 C 85.109375 1118.445312 382.75 1416.085938 750.425781 1416.085938 C 1118.097656 1416.085938 1415.738281 1118.445312 1415.738281 750.773438 C 1415.738281 383.097656 1115.910156 85.457031 750.425781 85.457031 Z M 750.425781 85.457031 " fill-opacity="1" fill-rule="nonzero"/></g><g transform="matrix(1, 0, 0, 1, 385, 0.000000000000112861)"><g clip-path="url(#0c313cec3f)"><g clip-path="url(#bde2893b1e)"><g fill="#737373" fill-opacity="1"><g transform="translate(50.357915, 1231.441903)"><g><path d="M 85.101562 -730.148438 L 173.300781 -730.148438 L 173.300781 -719.507812 L 162.664062 -719.507812 L 162.664062 -841.75 L 173.300781 -841.75 L 164.09375 -836.417969 C 154.796875 -852.480469 146.519531 -860.507812 139.261719 -860.507812 L 139.261719 -871.148438 L 144.015625 -861.632812 C 133.945312 -856.597656 126.445312 -852.601562 121.523438 -849.648438 C 115.878906 -846.261719 110.210938 -843.429688 104.527344 -841.15625 L 89.9375 -835.320312 L 89.9375 -852.578125 L 100.578125 -852.578125 L 104.527344 -842.703125 C 100.164062 -840.957031 96.523438 -839.042969 93.609375 -836.960938 C 88.824219 -833.542969 81.082031 -830.644531 70.390625 -828.269531 L 67.0625 -827.53125 L -58.257812 -880.695312 L -39.207031 -891.277344 C 64.523438 -948.90625 136.90625 -977.722656 177.941406 -977.722656 C 195.542969 -977.722656 214.660156 -974.460938 235.304688 -967.941406 C 255.222656 -961.652344 278.746094 -952.769531 305.875 -941.292969 L 312.367188 -938.542969 L 312.367188 -719.507812 L 301.730469 -719.507812 L 301.730469 -730.148438 L 402.113281 -730.148438 L 402.113281 -597.464844 L 306.371094 -597.464844 L 306.371094 -608.101562 L 317.011719 -608.101562 L 317.011719 -140.808594 L 306.371094 -140.808594 L 309.171875 -151.070312 C 330.949219 -145.132812 350.648438 -142.160156 368.265625 -142.160156 C 407.265625 -142.160156 441.835938 -152.855469 471.96875 -174.238281 L 472.066406 -174.308594 L 472.164062 -174.375 C 504.121094 -195.992188 520.097656 -222.96875 520.097656 -255.308594 L 520.097656 -430.160156 L 530.734375 -430.160156 L 527.371094 -420.066406 L 499.519531 -429.351562 L 502.882812 -439.441406 L 505.191406 -429.058594 C 498.304688 -427.527344 486.351562 -416.363281 469.339844 -395.570312 L 461.894531 -386.472656 L 330.203125 -518.164062 L 668.253906 -518.164062 L 668.253906 -244.476562 C 668.253906 -215.316406 656.46875 -184.835938 632.894531 -153.039062 C 609.492188 -121.472656 574.136719 -96.550781 526.832031 -78.273438 C 493.121094 -65.632812 459.167969 -56.417969 424.96875 -50.628906 C 390.855469 -44.859375 357.515625 -41.972656 324.941406 -41.972656 L 127.246094 -41.972656 L 163.648438 -120.523438 L 173.300781 -116.050781 L 162.664062 -116.050781 L 162.664062 -608.101562 L 173.300781 -608.101562 L 173.300781 -597.464844 L 74.464844 -597.464844 L 74.464844 -730.148438 Z M 85.101562 -708.871094 L 85.101562 -719.507812 L 95.742188 -719.507812 L 95.742188 -608.101562 L 85.101562 -608.101562 L 85.101562 -618.738281 L 183.9375 -618.738281 L 183.9375 -113.703125 L 153.554688 -48.136719 L 143.902344 -52.609375 L 143.902344 -63.246094 L 324.941406 -63.246094 C 356.320312 -63.246094 388.480469 -66.035156 421.421875 -71.609375 C 454.277344 -77.167969 486.855469 -86.007812 519.164062 -98.121094 C 562.636719 -114.917969 594.847656 -137.445312 615.804688 -165.710938 C 636.585938 -193.746094 646.976562 -220 646.976562 -244.476562 L 646.976562 -507.523438 L 657.617188 -507.523438 L 657.617188 -496.886719 L 355.886719 -496.886719 L 355.886719 -507.523438 L 363.410156 -515.046875 L 468.628906 -409.828125 L 461.105469 -402.304688 L 452.871094 -409.042969 C 472.992188 -433.636719 488.894531 -447.230469 500.574219 -449.828125 L 503.453125 -450.464844 L 541.371094 -437.824219 L 541.371094 -255.308594 C 541.371094 -215.441406 522.277344 -182.589844 484.085938 -156.753906 L 478.125 -165.566406 L 484.28125 -156.890625 C 450.460938 -132.886719 411.789062 -120.886719 368.265625 -120.886719 C 348.746094 -120.886719 327.183594 -124.105469 303.574219 -130.542969 L 295.734375 -132.683594 L 295.734375 -618.738281 L 391.476562 -618.738281 L 391.476562 -608.101562 L 380.835938 -608.101562 L 380.835938 -719.507812 L 391.476562 -719.507812 L 391.476562 -708.871094 L 291.089844 -708.871094 L 291.089844 -931.492188 L 301.730469 -931.492188 L 297.585938 -921.695312 C 271.074219 -932.914062 248.175781 -941.566406 228.894531 -947.652344 C 210.339844 -953.515625 193.355469 -956.445312 177.941406 -956.445312 C 140.582031 -956.445312 71.640625 -928.523438 -28.875 -872.679688 L -34.042969 -881.980469 L -29.886719 -891.773438 L 72.238281 -848.449219 L 68.082031 -838.652344 L 65.773438 -849.039062 C 73.648438 -850.789062 78.804688 -852.535156 81.242188 -854.273438 C 85.546875 -857.347656 90.675781 -860.078125 96.625 -862.457031 L 111.214844 -868.292969 L 111.214844 -851.03125 L 100.578125 -851.03125 L 96.625 -860.910156 C 101.257812 -862.761719 105.90625 -865.089844 110.578125 -867.890625 C 115.96875 -871.125 123.945312 -875.382812 134.503906 -880.664062 L 136.75 -881.785156 L 139.261719 -881.785156 C 154.695312 -881.785156 169.113281 -870.21875 182.507812 -847.078125 L 183.9375 -844.605469 L 183.9375 -708.871094 Z M 85.101562 -708.871094 "/></g></g></g></g><g fill="#ffffff" fill-opacity="1"><g transform="translate(50.357915, 1231.441903)"><g><path d="M 85.109375 -719.5 L 173.296875 -719.5 L 173.296875 -841.75 C 161.953125 -861.34375 150.609375 -871.140625 139.265625 -871.140625 C 128.941406 -865.984375 121.203125 -861.859375 116.046875 -858.765625 C 110.890625 -855.671875 105.734375 -853.09375 100.578125 -851.03125 L 100.578125 -852.578125 C 95.421875 -850.515625 91.035156 -848.191406 87.421875 -845.609375 C 83.816406 -843.035156 77.367188 -840.71875 68.078125 -838.65625 L -34.046875 -881.984375 C 68.078125 -938.710938 138.738281 -967.078125 177.9375 -967.078125 C 194.445312 -967.078125 212.5 -963.984375 232.09375 -957.796875 C 251.695312 -951.609375 274.910156 -942.835938 301.734375 -931.484375 L 301.734375 -719.5 L 391.46875 -719.5 L 391.46875 -608.09375 L 306.375 -608.09375 L 306.375 -140.8125 C 329.0625 -134.613281 349.691406 -131.515625 368.265625 -131.515625 C 409.523438 -131.515625 446.144531 -142.863281 478.125 -165.5625 C 513.195312 -189.289062 530.734375 -219.207031 530.734375 -255.3125 L 530.734375 -430.15625 L 502.875 -439.4375 C 493.59375 -437.375 479.671875 -425 461.109375 -402.3125 L 355.890625 -507.53125 L 657.609375 -507.53125 L 657.609375 -244.484375 C 657.609375 -217.660156 646.519531 -189.289062 624.34375 -159.375 C 602.164062 -129.457031 568.382812 -105.734375 523 -88.203125 C 489.988281 -75.816406 456.71875 -66.785156 423.1875 -61.109375 C 389.664062 -55.441406 356.914062 -52.609375 324.9375 -52.609375 L 143.90625 -52.609375 L 173.296875 -116.046875 L 173.296875 -608.09375 L 85.109375 -608.09375 Z M 85.109375 -719.5 "/></g></g></g></g></g></svg>